<mxfile host="Electron" modified="2024-05-20T22:21:22.228Z" agent="Mozilla/5.0 (Macintosh; Intel Mac OS X 10_15_7) AppleWebKit/537.36 (KHTML, like Gecko) draw.io/24.4.0 Chrome/120.0.6099.109 Electron/28.1.0 Safari/537.36" etag="Tj9zz6KhvNdOxue5GP_I" version="24.4.0" type="device">
  <diagram name="Page-1" id="ZNFxOjxP5cYbFs4iC51F">
    <mxGraphModel dx="1434" dy="769" grid="1" gridSize="10" guides="1" tooltips="1" connect="1" arrows="1" fold="1" page="1" pageScale="1" pageWidth="850" pageHeight="1100" math="0" shadow="0">
      <root>
        <mxCell id="0" />
        <mxCell id="1" parent="0" />
        <mxCell id="Bwr7v-AEFsfxMpoZ5kJj-5" value="" style="whiteSpace=wrap;html=1;aspect=fixed;fillColor=#B3B3B3;strokeColor=#000000;gradientColor=#b3b3b3;fontSize=24;" vertex="1" parent="1">
          <mxGeometry x="280" y="80" width="40" height="40" as="geometry" />
        </mxCell>
        <mxCell id="Bwr7v-AEFsfxMpoZ5kJj-6" value="" style="whiteSpace=wrap;html=1;aspect=fixed;fillColor=#B3B3B3;strokeColor=#000000;gradientColor=#b3b3b3;fontSize=24;" vertex="1" parent="1">
          <mxGeometry x="520" y="80" width="40" height="40" as="geometry" />
        </mxCell>
        <mxCell id="Bwr7v-AEFsfxMpoZ5kJj-7" value="e" style="whiteSpace=wrap;html=1;aspect=fixed;fontSize=24;" vertex="1" parent="1">
          <mxGeometry x="400" y="80" width="40" height="40" as="geometry" />
        </mxCell>
        <mxCell id="Bwr7v-AEFsfxMpoZ5kJj-8" value="f" style="whiteSpace=wrap;html=1;aspect=fixed;fontSize=24;" vertex="1" parent="1">
          <mxGeometry x="440" y="80" width="40" height="40" as="geometry" />
        </mxCell>
        <mxCell id="Bwr7v-AEFsfxMpoZ5kJj-9" value="g" style="whiteSpace=wrap;html=1;aspect=fixed;fontSize=24;" vertex="1" parent="1">
          <mxGeometry x="480" y="80" width="40" height="40" as="geometry" />
        </mxCell>
        <mxCell id="Bwr7v-AEFsfxMpoZ5kJj-10" value="d" style="whiteSpace=wrap;html=1;aspect=fixed;fontSize=24;" vertex="1" parent="1">
          <mxGeometry x="360" y="80" width="40" height="40" as="geometry" />
        </mxCell>
        <mxCell id="Bwr7v-AEFsfxMpoZ5kJj-12" value="7" style="whiteSpace=wrap;html=1;aspect=fixed;fillColor=none;strokeColor=none;gradientColor=#b3b3b3;align=center;fontSize=24;" vertex="1" parent="1">
          <mxGeometry x="520" y="120" width="40" height="40" as="geometry" />
        </mxCell>
        <mxCell id="Bwr7v-AEFsfxMpoZ5kJj-13" value="6" style="whiteSpace=wrap;html=1;aspect=fixed;fillColor=none;strokeColor=none;gradientColor=#b3b3b3;align=center;fontSize=24;" vertex="1" parent="1">
          <mxGeometry x="480" y="120" width="40" height="40" as="geometry" />
        </mxCell>
        <mxCell id="Bwr7v-AEFsfxMpoZ5kJj-14" value="5" style="whiteSpace=wrap;html=1;aspect=fixed;fillColor=none;strokeColor=none;gradientColor=#b3b3b3;align=center;fontSize=24;" vertex="1" parent="1">
          <mxGeometry x="440" y="120" width="40" height="40" as="geometry" />
        </mxCell>
        <mxCell id="Bwr7v-AEFsfxMpoZ5kJj-15" value="4" style="whiteSpace=wrap;html=1;aspect=fixed;fillColor=none;strokeColor=none;align=center;fontSize=24;" vertex="1" parent="1">
          <mxGeometry x="400" y="120" width="40" height="40" as="geometry" />
        </mxCell>
        <mxCell id="Bwr7v-AEFsfxMpoZ5kJj-16" value="3" style="whiteSpace=wrap;html=1;aspect=fixed;fillColor=none;strokeColor=none;align=center;fontSize=24;" vertex="1" parent="1">
          <mxGeometry x="360" y="120" width="40" height="40" as="geometry" />
        </mxCell>
        <mxCell id="Bwr7v-AEFsfxMpoZ5kJj-17" value="2" style="whiteSpace=wrap;html=1;aspect=fixed;fillColor=none;strokeColor=none;align=center;fontSize=24;" vertex="1" parent="1">
          <mxGeometry x="320" y="120" width="40" height="40" as="geometry" />
        </mxCell>
        <mxCell id="Bwr7v-AEFsfxMpoZ5kJj-18" value="1" style="whiteSpace=wrap;html=1;aspect=fixed;fillColor=none;strokeColor=none;align=center;fontSize=24;spacing=0;verticalAlign=top;" vertex="1" parent="1">
          <mxGeometry x="280" y="120" width="40" height="40" as="geometry" />
        </mxCell>
        <mxCell id="Bwr7v-AEFsfxMpoZ5kJj-19" value="0" style="whiteSpace=wrap;html=1;aspect=fixed;fillColor=none;strokeColor=none;align=center;fontSize=24;verticalAlign=top;horizontal=1;" vertex="1" parent="1">
          <mxGeometry x="240" y="120" width="40" height="40" as="geometry" />
        </mxCell>
        <mxCell id="Bwr7v-AEFsfxMpoZ5kJj-93" style="edgeStyle=orthogonalEdgeStyle;rounded=0;orthogonalLoop=1;jettySize=auto;html=1;entryX=0;entryY=0.5;entryDx=0;entryDy=0;" edge="1" parent="1" source="Bwr7v-AEFsfxMpoZ5kJj-20" target="Bwr7v-AEFsfxMpoZ5kJj-4">
          <mxGeometry relative="1" as="geometry">
            <mxPoint x="180" y="130" as="sourcePoint" />
          </mxGeometry>
        </mxCell>
        <mxCell id="Bwr7v-AEFsfxMpoZ5kJj-20" value="&lt;font face=&quot;Courier New&quot;&gt;_data&lt;/font&gt;" style="whiteSpace=wrap;html=1;fontSize=24;align=left;fillColor=none;" vertex="1" parent="1">
          <mxGeometry x="40" y="80" width="120" height="40" as="geometry" />
        </mxCell>
        <mxCell id="Bwr7v-AEFsfxMpoZ5kJj-22" value="&lt;font face=&quot;Courier New&quot;&gt;_front&lt;/font&gt;" style="whiteSpace=wrap;html=1;fontSize=24;align=left;fillColor=none;" vertex="1" parent="1">
          <mxGeometry x="40" y="120" width="120" height="40" as="geometry" />
        </mxCell>
        <mxCell id="Bwr7v-AEFsfxMpoZ5kJj-23" value="3" style="whiteSpace=wrap;html=1;fontSize=24;align=center;fillColor=none;strokeColor=none;" vertex="1" parent="1">
          <mxGeometry x="120" y="120" width="40" height="40" as="geometry" />
        </mxCell>
        <mxCell id="Bwr7v-AEFsfxMpoZ5kJj-83" value="&lt;font face=&quot;Courier New&quot;&gt;_back&lt;/font&gt;" style="whiteSpace=wrap;html=1;fontSize=24;align=left;fillColor=none;" vertex="1" parent="1">
          <mxGeometry x="40" y="160" width="120" height="40" as="geometry" />
        </mxCell>
        <mxCell id="Bwr7v-AEFsfxMpoZ5kJj-82" value="7" style="whiteSpace=wrap;html=1;fontSize=24;align=center;fillColor=none;strokeColor=none;" vertex="1" parent="1">
          <mxGeometry x="120" y="160" width="40" height="40" as="geometry" />
        </mxCell>
        <mxCell id="Bwr7v-AEFsfxMpoZ5kJj-4" value="" style="whiteSpace=wrap;html=1;aspect=fixed;fillColor=#B3B3B3;strokeColor=#000000;gradientColor=#b3b3b3;fontSize=24;" vertex="1" parent="1">
          <mxGeometry x="240" y="80" width="40" height="40" as="geometry" />
        </mxCell>
        <mxCell id="Bwr7v-AEFsfxMpoZ5kJj-86" value="" style="whiteSpace=wrap;html=1;aspect=fixed;fillColor=#B3B3B3;strokeColor=#000000;gradientColor=#b3b3b3;fontSize=24;" vertex="1" parent="1">
          <mxGeometry x="320" y="80" width="40" height="40" as="geometry" />
        </mxCell>
        <mxCell id="Bwr7v-AEFsfxMpoZ5kJj-94" style="edgeStyle=orthogonalEdgeStyle;rounded=0;orthogonalLoop=1;jettySize=auto;html=1;entryX=0;entryY=0.5;entryDx=0;entryDy=0;exitX=0.833;exitY=0.5;exitDx=0;exitDy=0;exitPerimeter=0;" edge="1" parent="1" source="Bwr7v-AEFsfxMpoZ5kJj-20" target="Bwr7v-AEFsfxMpoZ5kJj-4">
          <mxGeometry relative="1" as="geometry">
            <mxPoint x="180" y="130" as="sourcePoint" />
          </mxGeometry>
        </mxCell>
        <mxCell id="Bwr7v-AEFsfxMpoZ5kJj-95" value="" style="whiteSpace=wrap;html=1;aspect=fixed;fillColor=#B3B3B3;strokeColor=#000000;gradientColor=#b3b3b3;fontSize=24;" vertex="1" parent="1">
          <mxGeometry x="280" y="240" width="40" height="40" as="geometry" />
        </mxCell>
        <mxCell id="Bwr7v-AEFsfxMpoZ5kJj-96" value="h" style="whiteSpace=wrap;html=1;aspect=fixed;fillColor=none;strokeColor=#000000;gradientColor=#b3b3b3;fontSize=24;" vertex="1" parent="1">
          <mxGeometry x="520" y="240" width="40" height="40" as="geometry" />
        </mxCell>
        <mxCell id="Bwr7v-AEFsfxMpoZ5kJj-97" value="e" style="whiteSpace=wrap;html=1;aspect=fixed;fontSize=24;" vertex="1" parent="1">
          <mxGeometry x="400" y="240" width="40" height="40" as="geometry" />
        </mxCell>
        <mxCell id="Bwr7v-AEFsfxMpoZ5kJj-98" value="f" style="whiteSpace=wrap;html=1;aspect=fixed;fontSize=24;" vertex="1" parent="1">
          <mxGeometry x="440" y="240" width="40" height="40" as="geometry" />
        </mxCell>
        <mxCell id="Bwr7v-AEFsfxMpoZ5kJj-99" value="g" style="whiteSpace=wrap;html=1;aspect=fixed;fontSize=24;" vertex="1" parent="1">
          <mxGeometry x="480" y="240" width="40" height="40" as="geometry" />
        </mxCell>
        <mxCell id="Bwr7v-AEFsfxMpoZ5kJj-100" value="d" style="whiteSpace=wrap;html=1;aspect=fixed;fontSize=24;" vertex="1" parent="1">
          <mxGeometry x="360" y="240" width="40" height="40" as="geometry" />
        </mxCell>
        <mxCell id="Bwr7v-AEFsfxMpoZ5kJj-101" value="7" style="whiteSpace=wrap;html=1;aspect=fixed;fillColor=none;strokeColor=none;gradientColor=#b3b3b3;align=center;fontSize=24;" vertex="1" parent="1">
          <mxGeometry x="520" y="280" width="40" height="40" as="geometry" />
        </mxCell>
        <mxCell id="Bwr7v-AEFsfxMpoZ5kJj-102" value="6" style="whiteSpace=wrap;html=1;aspect=fixed;fillColor=none;strokeColor=none;gradientColor=#b3b3b3;align=center;fontSize=24;" vertex="1" parent="1">
          <mxGeometry x="480" y="280" width="40" height="40" as="geometry" />
        </mxCell>
        <mxCell id="Bwr7v-AEFsfxMpoZ5kJj-103" value="5" style="whiteSpace=wrap;html=1;aspect=fixed;fillColor=none;strokeColor=none;gradientColor=#b3b3b3;align=center;fontSize=24;" vertex="1" parent="1">
          <mxGeometry x="440" y="280" width="40" height="40" as="geometry" />
        </mxCell>
        <mxCell id="Bwr7v-AEFsfxMpoZ5kJj-104" value="4" style="whiteSpace=wrap;html=1;aspect=fixed;fillColor=none;strokeColor=none;align=center;fontSize=24;" vertex="1" parent="1">
          <mxGeometry x="400" y="280" width="40" height="40" as="geometry" />
        </mxCell>
        <mxCell id="Bwr7v-AEFsfxMpoZ5kJj-105" value="3" style="whiteSpace=wrap;html=1;aspect=fixed;fillColor=none;strokeColor=none;align=center;fontSize=24;" vertex="1" parent="1">
          <mxGeometry x="360" y="280" width="40" height="40" as="geometry" />
        </mxCell>
        <mxCell id="Bwr7v-AEFsfxMpoZ5kJj-106" value="2" style="whiteSpace=wrap;html=1;aspect=fixed;fillColor=none;strokeColor=none;align=center;fontSize=24;" vertex="1" parent="1">
          <mxGeometry x="320" y="280" width="40" height="40" as="geometry" />
        </mxCell>
        <mxCell id="Bwr7v-AEFsfxMpoZ5kJj-107" value="1" style="whiteSpace=wrap;html=1;aspect=fixed;fillColor=none;strokeColor=none;align=center;fontSize=24;spacing=0;verticalAlign=top;" vertex="1" parent="1">
          <mxGeometry x="280" y="280" width="40" height="40" as="geometry" />
        </mxCell>
        <mxCell id="Bwr7v-AEFsfxMpoZ5kJj-108" value="0" style="whiteSpace=wrap;html=1;aspect=fixed;fillColor=none;strokeColor=none;align=center;fontSize=24;verticalAlign=top;horizontal=1;" vertex="1" parent="1">
          <mxGeometry x="240" y="280" width="40" height="40" as="geometry" />
        </mxCell>
        <mxCell id="Bwr7v-AEFsfxMpoZ5kJj-109" style="edgeStyle=orthogonalEdgeStyle;rounded=0;orthogonalLoop=1;jettySize=auto;html=1;entryX=0;entryY=0.5;entryDx=0;entryDy=0;" edge="1" source="Bwr7v-AEFsfxMpoZ5kJj-110" target="Bwr7v-AEFsfxMpoZ5kJj-115" parent="1">
          <mxGeometry relative="1" as="geometry">
            <mxPoint x="180" y="290" as="sourcePoint" />
          </mxGeometry>
        </mxCell>
        <mxCell id="Bwr7v-AEFsfxMpoZ5kJj-110" value="&lt;font face=&quot;Courier New&quot;&gt;_data&lt;/font&gt;" style="whiteSpace=wrap;html=1;fontSize=24;align=left;fillColor=none;" vertex="1" parent="1">
          <mxGeometry x="40" y="240" width="120" height="40" as="geometry" />
        </mxCell>
        <mxCell id="Bwr7v-AEFsfxMpoZ5kJj-111" value="&lt;font face=&quot;Courier New&quot;&gt;_front&lt;/font&gt;" style="whiteSpace=wrap;html=1;fontSize=24;align=left;fillColor=none;" vertex="1" parent="1">
          <mxGeometry x="40" y="280" width="120" height="40" as="geometry" />
        </mxCell>
        <mxCell id="Bwr7v-AEFsfxMpoZ5kJj-112" value="3" style="whiteSpace=wrap;html=1;fontSize=24;align=center;fillColor=none;strokeColor=none;" vertex="1" parent="1">
          <mxGeometry x="120" y="280" width="40" height="40" as="geometry" />
        </mxCell>
        <mxCell id="Bwr7v-AEFsfxMpoZ5kJj-113" value="&lt;font face=&quot;Courier New&quot;&gt;_back&lt;/font&gt;" style="whiteSpace=wrap;html=1;fontSize=24;align=left;fillColor=none;" vertex="1" parent="1">
          <mxGeometry x="40" y="320" width="120" height="40" as="geometry" />
        </mxCell>
        <mxCell id="Bwr7v-AEFsfxMpoZ5kJj-114" value="1" style="whiteSpace=wrap;html=1;fontSize=24;align=center;fillColor=none;strokeColor=none;" vertex="1" parent="1">
          <mxGeometry x="120" y="320" width="40" height="40" as="geometry" />
        </mxCell>
        <mxCell id="Bwr7v-AEFsfxMpoZ5kJj-115" value="i" style="whiteSpace=wrap;html=1;aspect=fixed;fillColor=none;strokeColor=#000000;gradientColor=#b3b3b3;fontSize=24;" vertex="1" parent="1">
          <mxGeometry x="240" y="240" width="40" height="40" as="geometry" />
        </mxCell>
        <mxCell id="Bwr7v-AEFsfxMpoZ5kJj-116" value="" style="whiteSpace=wrap;html=1;aspect=fixed;fillColor=#B3B3B3;strokeColor=#000000;gradientColor=#b3b3b3;fontSize=24;" vertex="1" parent="1">
          <mxGeometry x="320" y="240" width="40" height="40" as="geometry" />
        </mxCell>
        <mxCell id="Bwr7v-AEFsfxMpoZ5kJj-117" style="edgeStyle=orthogonalEdgeStyle;rounded=0;orthogonalLoop=1;jettySize=auto;html=1;entryX=0;entryY=0.5;entryDx=0;entryDy=0;exitX=0.833;exitY=0.5;exitDx=0;exitDy=0;exitPerimeter=0;" edge="1" source="Bwr7v-AEFsfxMpoZ5kJj-110" target="Bwr7v-AEFsfxMpoZ5kJj-115" parent="1">
          <mxGeometry relative="1" as="geometry">
            <mxPoint x="180" y="290" as="sourcePoint" />
          </mxGeometry>
        </mxCell>
      </root>
    </mxGraphModel>
  </diagram>
</mxfile>
